<?xml version="1.0" encoding="utf-8"?>
<!-- Generator: Adobe Illustrator 27.9.0, SVG Export Plug-In . SVG Version: 6.00 Build 0)  -->
<!DOCTYPE svg PUBLIC "-//W3C//DTD SVG 1.1//EN" "http://www.w3.org/Graphics/SVG/1.1/DTD/svg11.dtd" [
	<!ENTITY ns_extend "http://ns.adobe.com/Extensibility/1.0/">
	<!ENTITY ns_ai "http://ns.adobe.com/AdobeIllustrator/10.0/">
	<!ENTITY ns_graphs "http://ns.adobe.com/Graphs/1.0/">
	<!ENTITY ns_vars "http://ns.adobe.com/Variables/1.0/">
	<!ENTITY ns_imrep "http://ns.adobe.com/ImageReplacement/1.0/">
	<!ENTITY ns_sfw "http://ns.adobe.com/SaveForWeb/1.0/">
	<!ENTITY ns_custom "http://ns.adobe.com/GenericCustomNamespace/1.0/">
	<!ENTITY ns_adobe_xpath "http://ns.adobe.com/XPath/1.0/">
]>
<svg version="1.1" xmlns:x="&ns_extend;" xmlns:i="&ns_ai;" xmlns:graph="&ns_graphs;"
	 xmlns="http://www.w3.org/2000/svg" xmlns:xlink="http://www.w3.org/1999/xlink" x="0px" y="0px" viewBox="0 0 1303 1019.89"
	 enable-background="new 0 0 1303 1019.89" xml:space="preserve">
<metadata>
	<sfw  xmlns="&ns_sfw;">
		<slices></slices>
		<sliceSourceBounds  bottomLeftOrigin="true" height="1020.64" width="1306" x="328" y="-1057.64"></sliceSourceBounds>
	</sfw>
</metadata>
<g id="Layer_1">
</g>
<g id="harita">
	<rect x="0" y="0.24" fill="#FFFFFF" width="1306" height="1020"/>
	
		<rect id="cerceve" x="72" y="57.24" fill="#2F94E0" stroke="#000000" stroke-width="1.9938" stroke-miterlimit="10" width="1229" height="960"/>
	<path fill="#FFFFFF" stroke="#000000" stroke-width="2" stroke-miterlimit="10" d="M172,230.24l-3.69-2.11v-4.89l-3.31-5l-4-2l-4,2
		l-4,1l-8-1l1-5l-3-10l-4-8l4-6l4-5v-8v-10l-2-7l3-6l-4-4l-1-7l5-2l5-3l6,1l8,1l10,1l10,1h8l6,1l6-1l2-7v-8.78
		c0,0,0.12-10.44,1.56-11.33c1.44-0.89-0.44-9.89,0-10.89s-3.56-6-3.56-6l-4-6l-3-3l-7-3l-7-3l-5-5l2-8l6-2l6,2l4,2h5l3-1
		c0,0,1.33,0,0.67-3c-0.67-3-2.44-9-2.44-9l5.34-1l1.44,2l5,2l0.89-4H1301l-1,119l-7,3l-6,2l-2,3l-2,6l4,6l6,9l6,9l2,4v23l-8,3
		c0,0-5,3-6,3s-12,2-12,2s-2-1-2-2s0-6,0-7s3-6,3-6l2-7l-3-4v-4l4-1l-1-5l-2-3l-5-2l-5,1l-5-4l1-4l3-3l2-5l-1.33-7h-19.56l-5.11,3
		l-5,5l-3-3l1.33-5l2.67-5l3-5c0,0,1-3,0-3s-6-1-6-1h-4l-6,4l-1,4l-6,3l-3,4l-1,4l-2,2l-6-1l-5,2v4l1,6l2,3l5-1l4,1l1,2l-1,5l2,3
		l4,1l4-3l3-5l4-1l2,2v2l3,1l5-1l3,2v3l-3,2c0,0-3,0-4,0s-6,3-6,3l-3,4h-3l-3,1.78l-5,8.22l-1,6l3,5l4,3l3,3l2,7v5l5,5l5,4l5,6l3,4
		l-2,5l-6,6l-1,4l-2,7l-1,7l-2,4l-3,3l-4,8l-6,11l-3,8l-6,8c0,0-4,2-5,3s-8,8-8,8l-10,4l-10,2l-9,6l-7,2l-7,2l-8,3l-4,1l-1,6l-1,3
		h-2.11l-0.89-4.78l-2-6.22h-2l-6-1c0,0-4-1-5,0s-6,3-6,3l-5,6l-6,7l-1,6l2,11l6,10l9,8l9,10l3,13l1,9l-1,10l-3,7l-5,8
		c0,0-5.78,0-6.89,0s-4.89,0-4.89,0l-3.22,2l-4.11,10l-5.89,7l-2-1l-1-13c0,0-2-4-3-4s-8-3-8-3s-8-8-8-9s-4-7-4-7s-4-2-5-3s-4-2-5-3
		s-3-4-3-4l-3-1l-3,2.22l-2,5.78l-1,14l-2,6l-1,6l1.78,7l-0.78,1l5,2.22l3,7.78l-13-6l-5.78-11l1.78-19l4-14l-3-14l-4-7l-2-14l-5-6
		l-6,8l-11,6l-1-1l-2-1l-1-4l1-6l-1-11l-3-8l-4.37-6l-5.63-4l-4-5l-3-6l-1-7l-1-5c0,0-2-1-3-1s-8,2.41-10,3.7s-7,3.3-8,3.3s-7,0-8,0
		s-7,3-7,3s-5,3-6,4s1,8,0,9s-2,5-4,5s-5,1-7,2s-4,3-4,3l-6,8l-5,4c0,0-2,4-3,5s-6,6-7,6s-6,4-6,4l-3,5l-6,1l-3,4l-2,11l1,9v7l-1,10
		l-2,8.85l-2,6.15l-4,1l-1,3l-1.48,5l-3.52,2l-3,6l-3,4l-5-3l-3-8l-3.37-7c0,0-2.63-7-2.63-8s-4-12-4-12s-4-6-4-7s-3-9-3-9l-4-11
		l-3-8c0,0-5-5-5-6s-4-9-4-9s0-10,0-11s0-8,0-9s0-9,0-9s-1-9-1-10s1-9,1-9l-3-4c0,0-2,0-3,1s0,6,0,6v2l-1,3c0,0-2,2-3,2s-4,3-4,3h-4
		l-4-2.07l-3-3.93l-5-5l-2-4h2c0,0,2,1,3,0s4-1,4-1l3-3l1-5h-5l-5,1h-4l-2-2l-1-3l1-4l-5-1h-4l-2-3c0,0-2-4-2-5s-2-4-2-4l-3-4
		c0,0-4,2-5,2s-9,2-10,2s-12-1-12-1l-9,2l-9-1l-6-1l-10-2h-5l-4-2l-5-1c0,0-2,0-2-1s0-5,0-7s-1-4-1-5s-2-3-2-3s-3,1-4,1s-5,2-6,3
		s-4,4-5,4s-4-1-4-1l-7-1l-10-8c0,0-8-3-8-4s-4-7-4-8s-2-8-3-9s-4-5-5-6s-10-3-10-3l-3,2c0,0-3,4-4,4s-3,1-3,1l1,7l7,7v6l3,5l4,6
		l4,7l3,9l4,3l3,5l3,2c0,0,6,2,7,2s11-1,11-1s6-2,7-2s5-8,6-9s8-12,8-12v5v7l2,3l-1,3l3,3l6,4l4,2c0,0,6,1,6,2s5,4,5,5s3,6,3,6l1,5
		c0,0-2,4-3,4s-5,5-5,5s-2,2-3,3s-2,2-3,2s-2,3-2,3l-1,12l-4,2c0,0-2,0-3,0s-3-1-3,0s-3,8-3,8l-4,1h-3l-1,4v3l-3,2h-3h-7
		c0,0,0,1-3,2s-4,1-5,1s-4,4-4,4v3l-2,4l-3,3l-5,1c0,0,1,1-2,1s-8,1.11-8,1.11l-5,0.89l-2,3l-4,3c0,0-3,4-4,4s-5-1-6,0s-6,4-6,4
		l-6,2l-6,3l-6,1h-5l-3-3l-1-5l-1-6l-2-9c0,0,0-4,0-5s0-7,0-7l-2-5c0,0-5-4-5-5s-5-7-5-7l-2-8l-5-8c0,0-2-5-3-6s-4-2-5-3s-5-5-5-6
		s0-7,0-8s-1-7-1-8s-3-7-3-7l-7-7l-3-1c0,0-1-5-1-6s-3-8-3-9s-4-7-4-7l-5-7l-2-5l-4-3l-2-3l-1-3l1-10l-1-1l-2,4v3l-1,4v4l-1,2l-3-1
		c0,0-3-3-3-4s-3-4-3-4s-2-3-2-4s-2-5-2-6s-1.56-3-1.78-3s-1,0-1,0l-0.22,5l1,3l3,6l3,6l4,6l1,7l3,7l5,9l1,5l2,6l2,3l2,6v4l4,3l5,6
		l2,5l1,4v6l1,3v5l2,6l1,4l4,3l4,4l5,5l1,8c0,0-1,4,0,5s1,6,1,6l5,4l8,4l5,5l7,8l6,8v2l1,3l1,5v5l2,3l5,1l5,1c0,0,8,0,8-1s5-3,5-3
		l7-2l9-1h5h4l5-2l6-3l4-3l4-2l-4,6l2,5c0,0,0,7-1,7s-3,4-3,4s2,4-1,7s-4,7-4,7l-3,6c0,0,0,4.33-1,4.67c-1,0.33-4,4.33-4,4.33l-3,6
		l-3,8l-2,5l-4,5l-4,6c0,0-3,2-4,3s-5,6-5,6l-10,7l-5,3l-5,5l-2,4l-4,4c0,0-4,5-5,5s-5,7-5,7l-7,7c0,0-1,5-2,5s-4,4-4,4s-4,3-4,4
		s-2,7-2,7l-3,6c0,0-3,4-3,5s-2,9-2,9l3,6c0,0,6,3,6,4s-3,2-3,2l-3,1c0,0,0,1,0,2s1,4,1,4v3v4c0,0,3,4,3,5s2,5,2,5l2,3l2,3
		c0,0-1,0,0,1s1,2,1,2l1,6l1,4l-1,6l2,8l-1,4l-1,4l1,6v4v9l-2,5c0,0-2,1-3,1s-5,1-5,1l-5,1c0,0-4,1-5,2s-5,2-5,2l-6,5l-2,4
		c0,0-2,3-3,4s-2,1-4,3s-3,3-3,3l-5,2l-3,2v4l1,4l2,5l3,6v5l2,5l1,7l-1,4v5l-1,2l-5,3l-2,2l-5,2c0,0-2,2-3,2s-6,2-6,2l-2,3v5l3,3
		l1,5l-2,7c0,0-2,2-2,3s-4,7-4,7l-4,5l-4,3v6l-3.67,4l-3.33,6c0,0-3,7-4,7s-4,4-4,4l-7,8c0,0-3,3-5,4s-5,7-6,7s-6,0-6,1s-4,3-5,3
		s-8,2-8,2l-9-1c0,0-2-1-5,0s-4,1-5,1s-5,2-5,2s-2,4-3,4s-1,2-3,3s-4,1-4,1s-3-2-4-2s-1,0-3-1s-3-2-3-2s-5-2-6-2s-4-1-4-3s-1-5-1-5
		l-2-5l2-5l1-7l-5-7c0,0-3-6-3-7s-2-9-2-10s-3-7-3-8s-3-7-3-7l-6-7l-5-9l-2-15l-3-12l-1-14v-10l-4-6c0,0-4-10-5-10s-4-8-4-8
		s-6-11-7-12s-3-7-3-7s0-7,0-8s1-8,1-9s2-10,2-11s3-7,3-7l3-8l2-5l4-4c0,0,2-2,2-6s0-10,0-10s-1-5-1-6s-2-5-2-5l-3-7v-9c0,0-2-5-2-7
		s-5-15-5-15l-4-8l-6-6l-3-7l-4-6c0,0-5-4-5-5s-4-5-5-6s-2-7-2-7l5-4c0,0,2-8,2-9s3-7,3-7v-8l-1-10l-1-5l-5-4l-5-2l-5-1l-5,1l-9,2
		l-4-2c0,0-3-6-3-7s-3-7-3-7s-3-4-4-4s-6-1-6-1h-6l-10,3l-6,1l-6,3l-7,3l-8,4l-6,3l-8-2l-12-2l-11,1l-10,4l-7,4l-7-3l-6-4l-6.67-7
		l-9.33-8l-11-8l-3.33-6.11c0,0-2.67-6.89-2.67-7.89s-4-7-4-7l-5-7l-6-4l-4-6l-4-6c0,0-6-5-6-6s-1-4-1-5s3-5,3-5l-1-4l-4-3l-1-4
		c0,0,1-3,2-3s2-4,2-4l3-6c0,0,2-3,2-4s1-5,1-6s1-7,1-7l-1-6l-2-5l-1-7l2-5c0,0-4-3-5-5s-2-4-3-4s0-6,0-6s4-4,4-5s3-6,3-7s2-7,3-7
		s3-6,3-7s4-3,4-4s3-5,3-6s2-6,2-6s5-5,5-6s6-9,6-9l4-6l6-2l5-3l3.33-2.11l2.67-3.89l4-2c0,0,2-1,2-2s2-3,2-3l2-4v-5l1-3l-2-3l-3-3
		l-1-4l3-2l2-5l3-4l4-6l5-2l5-5l4-2l2-3l2-5l1-5l3-3v-4l3-1l2,2l2,4l3,2h3h5l4,1h6h5l5-2l3-4c0,0,3-2,4-3s6-4,6-4l5-2l5-2l5-1l6-1h5
		h5l8-2l5,3l7-3c0,0,4-2,5-1s6,1,6,1l3,1h3l3-2l2-2l4-2l3-1h2c0,0,3,2,3,3s-1,2-1,3s-1,2,0,2s1,1,1,1l3-3l1-1c0,0,0,0,1,0s1,2,1,2
		s-1,3-2,3s-2,2-2,2s0,0,0,1s-1,6-1,6l3,2l2,3c0,0-1,6-2,6s-3,0-3,1s-3,2.81-3,2.81s0,6.07,0,5.63s2,4.56,3,4.56s9,4,9,4l7,4l5,4
		c0,0,1,0,3,1s6,0,6,0s4-1,5-1s3,0,3,0l2,3l2,7l3,2c0,0,1-1,2,0s4,1,5,1s3,1,4,1s2,0,4,2s3,2,3,2l5,5l4.89,5h3.26
		c0,0,1.85,1.3,2.85-0.85c1-2.15,0-5.93,0-5.93s0-10,0-11.11s1-6.11,1-6.11l2-2c0,0,2-4,3-4s8-3,8-3s5,0,6,1s5,0,6,2s6,3,6,4
		s3,2,3,2s2,1,3,2s7,3,8,3s10,1,10,1s2,4,5,4s7,0,8,1s3,1,6,2s8,3,8,3l5-5l2-4c0,0,2,0,3,0s4,1,4,1l4,3c0,0,4,1,6,1s10-1,10-1l4-3
		c0,0,3-4,3-5s3-9,3-9l2-6l1-7l3-6l1-6l-1-6l-1-5l1-3c0,0,2,1,2,0s0-3,0-3l2-5c0,0-1-1-2-1s-2,2-3,2s-1,0-1,1s-1,2-2,3s-1,1-1,1
		l-1,1h-3h-2c0,0-3,1-4,1s-6,1-6,1l-2-1h-2l-3-2c0,0-1-2-2-2s-5-3-5-3l-3-1l-5-2c0,0-2,0-3,1s-1,4-1,4l1,2l-2,2l-3-0.19l-5-0.81
		c0,0-1-2-1-3s-2-2-2-3s-3-2-3-2s-1,0-3-1s-6-2-6-2l-1-4v-2v-5l-1-4l-3-2h4v-2v-2l-2-3l-1-4l-4.26-2l-1.74-2v-2l2-2l2-2l1-2h2h2l3,1
		l2,1h4h2l4-1l2-3l-1-2l-3-1l-2-1l-4-1l-3-1h-1l-1,3l-2,1h-2l-3,1h-3h-2l-4-1c0,0-3-2-4-2s-4,0-5,0s-4,2-4,2l-3,2v2l-3,1h-6l-1,1
		l-1,4l2,3l2,4l-2,6c0,0-1,2,1,2s1,1,3,1s4,2,5,2s4,5,4,5l-1,4h-1h-1l-1-1c0,0-1-1-2-2s-3-1-4-2s-1-3-3-3s-3,0-3,0s3-1-2,0s-7,1-7,1
		l-1-1l-1-2v-2l-1-3l-3-2l-3-4l-2-3c0,0-2-2-2-3s-2-4-1-5s1-3,1-3v-6c0,0-1-2,0-4s1-5,1-5l-2-3c0,0-4-1-5-2s-3-2-3-2l-5-4l-4-3
		c0,0-8-4-8-5s-2-3-2-3l-4-3c0,0-2-1-3-2s-3-5-3-5s0-2-1-2s-1-3-1-4s-1-3-1-3v-2l-1-1h-2c0,0,0,1-1,2s-2.69,1.33-2.69,1.33
		l-1.31,0.67l-4-3c0,0,0-1-1-2s-4-3-4-3s1,0-3,0s-4-2-5,1s-1,3-1,3l-1,5c0,0,0,1,1,2s1,2,1,2c1,1,4,4,4,4l1,1l5,6l4,2c0,0,4,2,4,3
		s1,6,1,6s-1,1,0,2s2,1,2,2s1,3,2,4s3,4,3,4s0,0,2,1s3,1,3,1h3l3,1l-2,3l1,2l4,2h1c0,0,5,1,6,2s2,0,3,2s3,3,4,4s1,2,2,3s1,1,1,2
		s-1,2-1,2l-1,1l-2-2l-3-2l-1-2l-2-1c0,0,1-1-2-1s-2,0-3,1s-2,1-2,1v3c0,0,0,1,0,2s-0.37,2,0.81,3s0.19,3,1.19,3s3-1,3,1s0,2,0,3
		s-2,1-2,1h-2l-2,7l-2,4l-2,1l-1-3l2-5c0,0,1-2,1-3s0-3,0-3v-3v-5c0,0-2-1-3-2s-2-3-2-3h-3l-2-1l-2-1v-2v-2l-3-2c0,0,0,1-1,0
		s-4-2-4-2l-3-1l-7-5l-3-2l-5-6l-3-5l-4-5l-2-4l-2-7l-2-4l-5-4c0,0-2,0-3,0s-2,0-3,1s-4,2-4,2l-2,3l-1,2l-2,1h-3l-2,3l-1,2l-2,1
		l-1,1h-6l-8-2h-2l-3-1l-6,2l-3,1l-2,4l1,4c0,0,1,1,1,3s0,4,0,5s1,1,0,2s-4,3-4,3l-3,1l-4,2l-6,2c0,0,2-3,0,2s-3,5-3,5l-2,2l-2,1
		c0,0-2,0-2,1s-1,1-1,2s0,1-1,2s-3,6-3,6s-2,1,0,3s1,1,2,2s1,0.22,2,2.11s2,0.89,2,1.89s-1,3-1,3l-5,1c0,0-1-4-1,0s0,5,0,5l-3,3
		l-4,4l-4,3l-1-2l-2,4l-6,1h-3h-5h-3c0,0-2,0-2,1s0,3,0,3h-3l-2-1h-1l-1,1v1l-1,1v1v1L172,230.24z"/>
	<path fill="#2F94E0" stroke="#000000" stroke-width="1.9938" stroke-miterlimit="10" d="M462,165.24l4,3l7,2h2.74
		c0,0,1.26,1,2.26,1s4-1,4-1l3.07-5l2.93-3l6-3l4-2h6.04l3.96,1l8,2l2.11,4l2.89,1l7,1l4,4h7c0,0,6.93,1,6.96,1s9.04,1,9.04,1l4-2
		l7-3c0,0,0-3.15,0-4.07c0-0.93,1-8.93,1-8.93l-2-5l-4-5l-7-3.89l-7-5.11l-6-7l-7-6l-3-3l-4-2c0,0-5-2-3-3s4,0,5-1s4-1,4-1l1-4
		c0,0,0-3,1-3s1.44,0,2.22,0s1.33,0,1.33,0l-1.56-5v-4h4.96l5.04-5c0,0,0,0,0-1s-2-2-3-2s-6,0-7,1s-2,4-3,4s-6,0-6,0s-3,3-4,3
		s-8,2-8,2v3c0,0-2,1-3,2s-6,3-6,3l-5-2h-2l-3,1h-5l-2-2l-2-3l-1-4l-2-3v-1l-3,5l-3,1l-4,2v3l-1,3l-4,3l-4,3l-3,3v4l2,4h-4l-3,4
		l-1,4v3.63c0,0,1,2.37,1,3.37s-2,4-2,4h-4l-2,3v3.41v4v3.26l2,3.33l1,1l2,1l2,1l1,1l2,1h1L462,165.24z"/>
	<path fill="#FFFFFF" stroke="#000000" stroke-width="2" stroke-miterlimit="10" d="M506,124.24l2-3l3-1h3.33h3.33l3.33-2h1.33
		c0,0-1.33-3-2.33-3s-5.44,0-5.44,0l-2.56-1l-2-2l-1.5-2.22l-2.5-1.56l-3-1.22l-1-1l-1,1l-4,3c0,0-2,0-2,1s1,3,1,3s0.22,1,1.11,1
		s4.89,1,4.89,1s2,1,1,2s-2,2-2,3s-0.44,2-0.22,3s0.22,2,0.22,2h1.22c0,0-0.44,1,0.67,0s1.11-1,1.11-1L506,124.24z"/>
	<path fill="#FFFFFF" stroke="#000000" stroke-width="2" stroke-miterlimit="10" d="M405,220.24l-6-6c0,0-3-3-3-5s0-3.56,0-3.56h4.5
		l6.5-0.44c0,0,3,0,4,1s4,3,3,5s-3.74,1.5-3.74,1.5s-1.26,0.5-1.26,1.5s0,0,1,2s0.93,3-0.04,4C409,221.24,405,220.24,405,220.24z"/>
	<polygon fill="#FFFFFF" stroke="#000000" stroke-width="2" stroke-miterlimit="10" points="414.2,237.39 419.15,237.39 
		419.15,240.06 	"/>
	<path fill="#FFFFFF" stroke="#000000" stroke-width="2" stroke-miterlimit="10" d="M425.67,238.72c0,0-0.59-2.19,2.37-1.33
		c2.96,0.85,7.11,1.33,7.11,1.33s0.89-0.85,2.37,1.33c1.48,2.19-1.52,3.19-1.52,3.19h-7.07c0,0-2.69-2.05-3.31-3.02
		s-0.62-0.98-0.62-0.98L425.67,238.72z"/>
	<path fill="#FFFFFF" stroke="#000000" stroke-width="2" stroke-miterlimit="10" d="M489.67,243.24l1.19-3.02h1.48H495l2.96-1.49
		c0,0,1.3,0.48,2.67,0c1.37-0.48,2.96,0,2.96,0v-1.33v2.67l-3.26,0.26l-2.33,1.93l-1.37,1l-1.63,2.44h-2.07c0,0-1.22,2.44-2.07,0
		C490,243.24,489.67,243.24,489.67,243.24z"/>
	<path fill="#FFFFFF" stroke="#000000" stroke-width="2" stroke-miterlimit="10" d="M345,217.24c0,0,1-1.74,0-2.37
		c-1-0.63,0.44-3.56,0.44-3.56l2.56-4.07v-2c0,0-2.71,0.67-3.35,1.33c-0.65,0.67-2.65,0.67-2.65,0.67l-5,1c0,0-1-1-2-1s-2,0-4,0
		s-3-1-3-1l-4,1v2.3l5.37,3.43l4.63,3.28l4,3c0,0,0.48-1,1.74,0c1.26,1,1.26,1,1.26,1h3.78L345,217.24z"/>
	<path fill="#FFFFFF" stroke="#000000" stroke-width="2" stroke-miterlimit="10" d="M292,193.24c-1-1-3-5-3-5s0-2.19,0-3.59
		s0-6.22,0-6.22v-4.15l4.52-2.04l3.48-4l5,2c0,0,2,2.89,0,3.44s-3,3.56-3,4.56s0,6,0,6s0.11-1-0.44,2c-0.56,3-2.61,4.63-2.61,4.63
		L292,193.24z"/>
	<polygon fill="#FFFFFF" stroke="#000000" stroke-width="2" stroke-miterlimit="10" points="295,162.24 292,158.24 292,153.24 
		292,150.87 298,149.24 299.44,155.74 295.94,160.94 	"/>
	<polygon fill="#FFFFFF" stroke="#000000" stroke-width="2" stroke-miterlimit="10" points="242,191.24 240.78,186.24 
		241.39,184.94 244.63,186.24 244.63,188.09 242.7,189.69 	"/>
	<line fill="#FFFFFF" stroke="#000000" stroke-width="2" stroke-miterlimit="10" x1="231.3" y1="195.24" x2="231.3" y2="197.39"/>
	<path fill="#FFFFFF" stroke="#000000" stroke-width="2" stroke-miterlimit="10" d="M581,808.24c0,0-1-8.44,0-9.22s5-8.78,5-8.78
		l3.22-7c0,0-0.78-3.22,0-5.11c0.78-1.89-4.33-13.78-4.33-13.78l0.04-6.67l4.37-8.44l3.7-4l8-6c0,0,2,1,6-2s9-9,9-9l11-6l4-9l4-7.11
		c0,0,5,2.11,4,7.11s2.26,6.11,0.13,11.56c-2.13,5.44-4.13,13.33-4.13,13.33s0,4.89,0,8c0,3.11,0,3.11,0,3.11s-1,10-3,11s-5,5-5,7
		s-4,13-4,13l1,7c0,0,0,6-1,8s-4,15-4,15s-3,9-4,11s1,10-1,11s-9,5-9,5h-4.67H591l-4-7l-4-5l-2.44-8l3.44-5L581,808.24z"/>
	<path fill="#FFFFFF" stroke="#000000" stroke-width="2" stroke-miterlimit="10" d="M1098,646.24l-15-14l-20-17l-6-16v-8.67
		l-15-10.33v-8.04l-15-10.96l-13-14v-9h7.22l8.78,6l10,7l8,9l8,9.59l3,4.41c0,0,3-3,7,2s12,13,12,13l6,12l2,9l12,3.44l6,8.56v9.22
		L1098,646.24z"/>
	<path fill="#FFFFFF" stroke="#000000" stroke-width="2" stroke-miterlimit="10" d="M1114,660.24l-10-6.26l5-10.67h5l9.15,8.46
		c0,0-6.85,5.5,0,3.98c6.85-1.52,11.85-3.98,11.85-3.98h7.7h8.89c0,0,9.41,2.46,10.41,4.46s3.81,4,3.81,4l-8.81,12h-8.96l-13.04-8
		c0,0,0,0-4,0s-10,0-10,0l-4-1L1114,660.24z"/>
	<path fill="#FFFFFF" stroke="#000000" stroke-width="2" stroke-miterlimit="10" d="M1165.81,620.2l-13.81,2.04l-6.33-2.04
		l-10.67-9.48l-0.09-7.7c0,0-0.09-5.63,0-7.7c0.09-2.07-4.91-7.07-4.91-7.07l-4-10l8.91-4.26h3.06h4.74c0,0,0.11-1.19,3.2-2.96
		c3.09-1.78,10.09-10.78,13.09-11.78s16-11,16-11l9-7l8-16l13,8l4.07,5l-6.07,12l-6,2l4,12c0,0,4,3,5,6s3,9,3,9l0.07,13l-11.07-7
		l-3.74,7l-4.26,8c0,0-3,17-3,18s-8,9-8,9l-6-3L1165.81,620.2z"/>
	<path fill="#FFFFFF" stroke="#000000" stroke-width="2" stroke-miterlimit="10" d="M1217,638.24c0-2,0-11.78,0-13.89
		c0-2.11-4-10.11-4-11.11s0-7.85,0-7.85l7-2.37c0,0,1.15-5.22,5.07,0s7.93,5.22,7.93,7.22s0,9.23,0,9.23s-2.82,0.82-5.83,2.09
		c-3.46,1.47-7.17,3.54-7.17,5.68c0,4,3,3.37,0,7.19S1217,638.24,1217,638.24z"/>
	<path fill="#FFFFFF" stroke="#000000" stroke-width="2" stroke-miterlimit="10" d="M1230.41,627.24c1.59,2,5.59,4,5.59,4
		c4,0,13.19,6,11.59,0c-1.59-6-4.59-8-4.59-8s-0.82-1.54-3.91-3.77c-3.09-2.23-6.09,0-6.09,0L1230.41,627.24z"/>
	<path fill="#FFFFFF" stroke="#000000" stroke-width="2" stroke-miterlimit="10" d="M1187.15,672.24c-5.15,0-10.15-5-10.15-5
		S1192.3,672.24,1187.15,672.24z"/>
	<path fill="#FFFFFF" stroke="#000000" stroke-width="2" stroke-miterlimit="10" d="M1203.15,672.24c0,0,4-1,5.93,0
		s10.93-0.44,10.93-0.44h6.26l-6.26-4.56h-16.85h-3.56L1203.15,672.24z"/>
	<path fill="#FFFFFF" stroke="#000000" stroke-width="2" stroke-miterlimit="10" d="M1247.78,683.61l4.22-6.37h2.7l7.11-5l8.89-2.32
		h4.74c0,0-4.78,5.37-7.11,6.85c-2.33,1.48-0.11,0.29-6.72,3.88c-6.61,3.59-9.87,2.96-9.87,2.96H1247.78z"/>
	<path fill="#FFFFFF" stroke="#000000" stroke-width="2" stroke-miterlimit="10" d="M1239.09,583.46c0,0,2.91-0.22,4.91-0.22
		s7.74,0,7.74,0s0.26-3,4.26-4s9.37,0,9.37,0l-7.37,7l-5.77,2.56h-21.82h-4.15l-3.26-2.37v-7.63l7.41,2.3l2.59,2.7L1239.09,583.46z"
		/>
	<path fill="#FFFFFF" stroke="#000000" stroke-width="2" stroke-miterlimit="10" d="M1261.61,533.69l-7.5-8.44
		c0,0,4.61-3.37,3.75-5.19s0-5.31,0-5.31l3.75-4.76l3.76-2.37l3.56-3.37l11.07,5c0,0-4.11,9.44-4.56,9.72s-8.39,4.06-8.39,4.06
		l-1.69,4.74L1261.61,533.69z"/>
	<polygon fill="#FFFFFF" stroke="#000000" stroke-width="2" stroke-miterlimit="10" points="1239.09,514.74 1244.18,514.74 
		1244.18,512.35 1247.78,512.35 1247.78,518.96 1239.09,521.24 	"/>
	<path fill="#FFFFFF" stroke="#000000" stroke-width="2" stroke-miterlimit="10" d="M1247.78,501.09c0,0-8.59-4-8.68-5.93
		c-0.09-1.93,0-5.93,0-5.93l8.68,5.93V501.09z"/>
	<polygon fill="#FFFFFF" stroke="#000000" stroke-width="2" stroke-miterlimit="10" points="1261.61,482.13 1258,477.24 
		1258,474.43 1265,482.24 1265.37,478.33 1265.37,474.43 1261.61,474.43 	"/>
	<polygon fill="#FFFFFF" stroke="#000000" stroke-width="2" stroke-miterlimit="10" points="1229,473.24 1226,467.24 1232,465.24 
		1233,468.24 1234,472.24 1230,473.24 	"/>
	<path fill="#FFFFFF" stroke="#000000" stroke-width="2" stroke-miterlimit="10" d="M1241,484.24l1.85-2c0,0,3.07,1,3.11,2
		c0.04,1,0,1.74,0,1.74l-0.96,1.26h-1.57h-1.77l-1.36-2.5L1241,484.24z"/>
	<path fill="#FFFFFF" stroke="#000000" stroke-width="2" stroke-miterlimit="10" d="M1229,460.24l1-6.26c0,0,0-1.33-0.5-1.04
		s-3.5-0.89-3.5-0.89l-5-1.81l-1-3.52l1-5.48l3-2c0,0,1,1,1,0s0-4.04,0-4.52s-1-11.48-1-11.48l1-4.96l3-3.04h3.59
		c0,0,1.41,1.52,2.41,1.26c1-0.26,5.09,3.85,5.09,3.85l1.21,5.93l0.69,3.96c0,0,3-2,1,2s-2.95,5.5-2.95,5.5l-2.05,0.5l-2,3
		c0,0-1,0.96-1,1.48s0,0,0,3.26c0,3.26-1,4.11,0,5.19c1,1.07,1,0.07,1,3.07s-0.3,6-0.15,6c0.15,0-0.85,2.04-0.85,2.04h-4
		L1229,460.24z"/>
	<path fill="#FFFFFF" stroke="#000000" stroke-width="2" stroke-miterlimit="10" d="M1227,374.24l5-6v-9.52l4-5.48v-4.3h-4.5
		c0,0,1.19,1.26-0.16,1.78s-4.34,4.3-4.34,4.3s-1,4.22-1,5.22s-2,3-2,4s-1,4-1,5s2.22,5,2.22,5H1227z"/>
	<path fill="#FFFFFF" stroke="#000000" stroke-width="2" stroke-miterlimit="10" d="M1285.81,588.8l4.19-3.56c0,0,2-3,2-4
		s0-2.96,0-2.96s-3.19-0.96-3.09,0c0.09,0.96-1.91,1.96-1.91,2.96s-1.37,3.19-1.19,4.59S1285.81,588.8,1285.81,588.8z"/>
	<path fill="#FFFFFF" stroke="#000000" stroke-width="2" stroke-miterlimit="10" d="M1283,604.24l2.8,1c0,0-0.2,0.78,0,0.89
		c0.2,0.11-2.8,2.11-2.8,2.11V604.24z"/>
	<path fill="#FFFFFF" stroke="#000000" stroke-width="2" stroke-miterlimit="10" d="M1274.11,626.19c-0.11-0.95-2.11-2.95-2.11-2.95
		l1.06-3.77h4.31c0,0-0.37,1.77,1.63,1.77s3.81-0.82,3.41,1.59c-0.41,2.41,0.59,2.41-0.41,2.41s-3.44,0.95-3.44,0.95l-4.74,1.05
		L1274.11,626.19z"/>
	<path fill="#FFFFFF" stroke="#000000" stroke-width="2" stroke-miterlimit="10" d="M1301,736.06l-6-2.81l-1.78,2.81l-1.22,1.19
		l-3.52-2l-1.48-6c0,0-1-1-1-2s-2-5-3-5s-6,0-6,1s-5.11,5-5.56,6.5s-4.44,5.5-4.44,5.5s-1.67-4-1.33,2c0.33,6-4.06,8.74-4.06,8.74
		s-2.98-2.26-3.8,0c-0.81,2.26-1.81,4.26-2.81,5.26s-2,3-2,4s-1,2-2,2s-2-1-2-1s-2-3-2-5s4-5.78,0-2.89c-4,2.89-4,1.89-5,3.89
		s-1,2-1,5s-2,5-1,5s1,1,1,1s1,1,0,3s-2,4-3,4s-1,0-2,1s-7,3-7,4s-4,2-4,3s-3.93,5-3.93,5l-6.07,3h-2.52l-5.48,1l-3,1l-5,2
		c0,0-2.11,0-3.56,0s-3.44,0-4.44,1s-6,2-6,3s-6,4-6,4s0,1,0,2s-1,1-2,3s-4,2-4,4s-2-2-3,6s-1,8-1,8s1,0,1,2s-1,1,1,5s3,5,2,7
		s-2,2-2,3s0-2,1,3s1,3,1,5s1,2-1,3s-2,0-2,1s-1,4,0,5s1,4,2,4s1-1,2,2s2,3,2,6s3,8,3,8s-1-1,0,1s-1,3-1,3l1,4l-1,2l2,6c0,0-1-6,1,2
		s3,9,3,9l2,2c2,4,2,2,2,6s0,4,0,6s-1,4-1,5s-4,5-4,5s-5-3-4,2s3,6,3,6s3,3,4,3s3,2,4,2s1.52,1,4.26,1s1.44,0,4.59,0
		c3.15,0,9.15-1,12.15-3s4-3,4-3s-4,2,1-2s6-5,6-5s-1,0,2,0s4,0,6,0s2,0.44,5,0.22s5-0.22,7-0.22s-2-1,3-1s8,0,9-1s2,3,3-3s0-5,1-6
		s0-2,4-3s5-2,5-2s0-1,2-1s4,0,4,0h6c0,0,7-3,8-3s7,0,7,0s-1-2,2-2s4,0,4,0l1-0.44V736.06z"/>
	<path fill="#FFFFFF" stroke="#000000" stroke-width="2" stroke-miterlimit="10" d="M889,534.24h9.56c0,0,1.44-1,1.44-3
		s-1-6.63,0-8.81s0-9.19,0-9.19l-5.28-5.04l-5.72-6.22c-1,3.26,1,2.22,0,4.74s-3,5.52-3,6.52s0,5.04,0,6.52c0,1.48,0,6.52,0,8
		C886,529.24,889,534.24,889,534.24z"/>
</g>
<g id="boylam">
	<line fill="none" stroke="#000000" stroke-width="1.9938" stroke-miterlimit="10" x1="72" y1="57.24" x2="72" y2="1017.24"/>
	
		<line id="_x31_0W_00000175312148580920763240000009101677820836421044_" fill="none" stroke="#000000" stroke-width="1.9938" stroke-miterlimit="10" x1="134" y1="58.24" x2="134" y2="1018.24"/>
	
		<line id="_x31_00E_00000069392647690546332180000013731212801077868198_" fill="none" stroke="#000000" stroke-width="1.9938" stroke-miterlimit="10" x1="1053" y1="58.24" x2="1053" y2="1018.24"/>
	
		<line id="_x31_10E_00000075843427277344181580000001367871189610060980_" fill="none" stroke="#000000" stroke-width="1.9938" stroke-miterlimit="10" x1="1135" y1="58.24" x2="1135" y2="1018.24"/>
	
		<line id="_x31_0E_00000183239730716512561010000004788918545417986709_" fill="none" stroke="#000000" stroke-width="1.9938" stroke-miterlimit="10" x1="304" y1="57.24" x2="304" y2="1017.24"/>
	
		<line id="_x30__00000093890839925099035720000016750222126387477690_" fill="none" stroke="#000000" stroke-width="1.9938" stroke-miterlimit="10" x1="219" y1="57.24" x2="219" y2="1017.24"/>
	
		<line id="_x32_0E_00000019659344530552952380000012957725920282604935_" fill="none" stroke="#000000" stroke-width="1.9938" stroke-miterlimit="10" x1="386" y1="57.24" x2="386" y2="1017.24"/>
	
		<line id="_x33_0E_00000093160793803591579960000014405996199237288091_" fill="none" stroke="#000000" stroke-width="1.9938" stroke-miterlimit="10" x1="468" y1="57.24" x2="468" y2="1017.24"/>
	
		<line id="_x34_0E_00000013875446194825825720000015728250029595835533_" fill="none" stroke="#000000" stroke-width="1.9938" stroke-miterlimit="10" x1="554" y1="57.24" x2="554" y2="1017.24"/>
	
		<line id="_x35_0E_00000058566119421432649510000012289591253071890846_" fill="none" stroke="#000000" stroke-width="1.9938" stroke-miterlimit="10" x1="635" y1="57.24" x2="635" y2="1017.24"/>
	
		<line id="_x36_0E_00000165222634471909588060000008583491757992073652_" fill="none" stroke="#000000" stroke-width="1.9938" stroke-miterlimit="10" x1="719" y1="57.24" x2="719" y2="1017.24"/>
	
		<line id="_x37_0E_00000099660396084409133960000005887672100295484320_" fill="none" stroke="#000000" stroke-width="1.9938" stroke-miterlimit="10" x1="805" y1="57.24" x2="805" y2="1017.24"/>
	
		<line id="_x38_0E_00000119802197477640533560000004587782416782512063_" fill="none" stroke="#000000" stroke-width="1.9938" stroke-miterlimit="10" x1="886" y1="57.24" x2="886" y2="1017.24"/>
	
		<line id="_x39_0E_00000156566676300135747740000010105681420931268512_" fill="none" stroke="#000000" stroke-width="1.9938" stroke-miterlimit="10" x1="973" y1="58.24" x2="973" y2="1018.24"/>
	
		<line id="_x31_20E_00000047032877992862805800000004179989832767825811_" fill="none" stroke="#000000" stroke-width="1.9938" stroke-miterlimit="10" x1="1220" y1="57.24" x2="1220" y2="1017.24"/>
	<line fill="none" stroke="#000000" stroke-width="1.9938" stroke-miterlimit="10" x1="1301" y1="58.24" x2="1301" y2="1018.24"/>
</g>
<g id="enlem">
	<line id="_x35_0N" fill="none" stroke="#000000" stroke-miterlimit="10" x1="68" y1="57.24" x2="1303" y2="57.24"/>
	
		<line id="_x33_0N" fill="none" stroke="#000000" stroke-width="2" stroke-miterlimit="10" x1="71" y1="298.24" x2="1303" y2="298.24"/>
	
		<line id="_x34_0N" fill="none" stroke="#000000" stroke-width="2" stroke-miterlimit="10" x1="70" y1="186.24" x2="1301" y2="186.24"/>
	
		<line id="_x32_0N" fill="none" stroke="#000000" stroke-width="2" stroke-miterlimit="10" x1="69" y1="401.24" x2="1301" y2="401.24"/>
	
		<line id="_x31_0N" fill="none" stroke="#000000" stroke-width="2" stroke-miterlimit="10" x1="69" y1="498.24" x2="1301" y2="498.24"/>
	
		<line id="_x30__00000107561790543773571890000015561163361842571924_" fill="none" stroke="#000000" stroke-width="2" stroke-miterlimit="10" x1="70" y1="593.24" x2="1301" y2="593.24"/>
	
		<line id="_x31_0S" fill="none" stroke="#000000" stroke-width="2" stroke-miterlimit="10" x1="70" y1="688.24" x2="1301" y2="688.24"/>
	
		<line id="_x33_0S" fill="none" stroke="#000000" stroke-width="2" stroke-miterlimit="10" x1="70" y1="888.24" x2="1301" y2="888.24"/>
	
		<line id="_x32_0S" fill="none" stroke="#000000" stroke-width="2" stroke-miterlimit="10" x1="70" y1="783.24" x2="1301" y2="783.24"/>
	
		<line id="_x34_0S" fill="none" stroke="#000000" stroke-width="2" stroke-miterlimit="10" x1="70" y1="1000.24" x2="1301" y2="1000.24"/>
</g>
<g id="etiket">
	<text transform="matrix(0.7846 0 0 1 113 48.1304)" font-family="'Articulate'" font-size="48.4454px">10°</text>
	<text transform="matrix(0.7846 0 0 1 10 1010.1304)" font-family="'Articulate'" font-size="48.4454px">40°</text>
	<text transform="matrix(0.7846 0 0 1 10 904.1304)" font-family="'Articulate'" font-size="48.4454px">30°</text>
	<text transform="matrix(0.7846 0 0 1 10 801.1304)" font-family="'Articulate'" font-size="48.4454px">20°</text>
	<text transform="matrix(0.7846 0 0 1 10 701.1304)" font-family="'Articulate'" font-size="48.4454px">10°</text>
	<text transform="matrix(0.7846 0 0 1 31.1352 610.1304)" font-family="'Articulate'" font-size="48.4454px">0°</text>
	<text transform="matrix(0.7846 0 0 1 10 515.1304)" font-family="'Articulate'" font-size="48.4454px">10°</text>
	<text transform="matrix(0.7846 0 0 1 10 416.1304)" font-family="'Articulate'" font-size="48.4454px">20°</text>
	<text transform="matrix(0.7846 0 0 1 10 312.1304)" font-family="'Articulate'" font-size="48.4454px">30°</text>
	<text transform="matrix(0.7846 0 0 1 10 197.1304)" font-family="'Articulate'" font-size="48.4454px">40°</text>
	<text transform="matrix(0.7846 0 0 1 10 73.1304)" font-family="'Articulate'" font-size="48.4454px">50°</text>
	<text transform="matrix(0.7846 0 0 1 209 48.1304)" font-family="'Articulate'" font-size="48.4454px">0°</text>
	<text transform="matrix(0.7846 0 0 1 280 48.1304)" font-family="'Articulate'" font-size="48.4454px">10°</text>
	<text transform="matrix(0.7846 0 0 1 361 48.1304)" font-family="'Articulate'" font-size="48.4454px">20°</text>
	<text transform="matrix(0.7846 0 0 1 444 48.1304)" font-family="'Articulate'" font-size="48.4454px">30°</text>
	<text transform="matrix(0.7846 0 0 1 526 49.1304)" font-family="'Articulate'" font-size="48.4454px">40°</text>
	<text transform="matrix(0.7846 0 0 1 610 48.1304)" font-family="'Articulate'" font-size="48.4454px">50°</text>
	<text transform="matrix(0.7846 0 0 1 692 49.1304)" font-family="'Articulate'" font-size="48.4454px">60°</text>
	<text transform="matrix(0.7846 0 0 1 782 49.1304)" font-family="'Articulate'" font-size="48.4454px">70°</text>
	<text transform="matrix(0.7846 0 0 1 861 48.1304)" font-family="'Articulate'" font-size="48.4454px">80°</text>
	<text transform="matrix(0.7846 0 0 1 1109 50.1304)" font-family="'Articulate'" font-size="48.4454px">110°</text>
	<text transform="matrix(0.7846 0 0 1 1022 48.1304)" font-family="'Articulate'" font-size="48.4454px">100°</text>
	<text transform="matrix(0.7846 0 0 1 946 48.1304)" font-family="'Articulate'" font-size="48.4454px">90°</text>
	<text transform="matrix(0.7846 0 0 1 1197 48.1304)" font-family="'Articulate'" font-size="48.4454px">120°</text>
	
		<rect x="102.5" y="971.74" fill="#FFFFFF" stroke="#000000" stroke-width="0.989" stroke-miterlimit="10" width="224" height="16"/>
	<rect x="103.5" y="971.74" fill="#FFFFFF" stroke="#000000" stroke-miterlimit="10" width="75" height="16"/>
	
		<rect x="178.5" y="971.74" fill="#020202" stroke="#000000" stroke-width="1.0067" stroke-miterlimit="10" width="75" height="16"/>
	<text transform="matrix(0.9171 0 0 1 97.332 960.5093)" font-family="'MyriadPro-Regular'" font-size="26.9251px">0</text>
	<text transform="matrix(0.9171 0 0 1 159.332 960.5093)" font-family="'MyriadPro-Regular'" font-size="26.9251px">1000</text>
	<text transform="matrix(0.9171 0 0 1 233.332 960.5093)" font-family="'MyriadPro-Regular'" font-size="26.9251px">2000</text>
	<text transform="matrix(0.9171 0 0 1 312.332 960.5093)" font-family="'MyriadPro-Regular'" font-size="26.9251px">3000</text>
	<text transform="matrix(0.9422 0 0 1 331.8887 985.9927)" font-family="'MyriadPro-Regular'" font-size="20.9948px">km</text>
	<polygon fill="#FCFAFA" stroke="#000000" stroke-width="3" stroke-miterlimit="10" points="1153,232.24 1175,147.24 
		1201.14,239.02 1175.5,221.74 	"/>
	<polygon fill="#F20C0C" stroke="#000000" stroke-miterlimit="10" points="1175.5,222.74 1174.77,148.14 1200.5,237.74 	"/>
	<text transform="matrix(1 0 0 1 335.5542 478.7759)" font-family="'MyriadPro-Regular'" font-size="49.6733px">Afrika</text>
	<text transform="matrix(1 0 0 1 925.5542 246.7759)" font-family="'MyriadPro-Regular'" font-size="49.6733px">Asya</text>
	<g>
		<text transform="matrix(0.9878 0 0 1 812.4546 654.6782)"><tspan x="0" y="0" fill="#030D89" font-family="'MyriadPro-Regular'" font-size="43.5338px">Hint</tspan><tspan x="-52.07" y="52.24" fill="#030D89" font-family="'MyriadPro-Regular'" font-size="43.5338px">Okyanusu</tspan></text>
	</g>
	<text transform="matrix(0.9878 0 0 1 134.3267 654.6782)"><tspan x="0" y="0" fill="#030D89" font-family="'MyriadPro-Regular'" font-size="43.5338px">Atlas</tspan><tspan x="-45.86" y="52.24" fill="#030D89" font-family="'MyriadPro-Regular'" font-size="43.5338px">Okyanusu</tspan></text>
	<text transform="matrix(1 0 0 1 270.5542 97.7759)" font-family="'MyriadPro-Regular'" font-size="49.6733px">Avrupa</text>
	<text transform="matrix(0.9878 0 0 1 1165.1235 139.0557)" font-family="'MyriadPro-Regular'" font-size="43.5338px">K</text>
</g>
</svg>
