<?xml version="1.0" encoding="utf-8"?>
<!-- Generator: Adobe Illustrator 27.9.0, SVG Export Plug-In . SVG Version: 6.00 Build 0)  -->
<!DOCTYPE svg PUBLIC "-//W3C//DTD SVG 1.1//EN" "http://www.w3.org/Graphics/SVG/1.1/DTD/svg11.dtd" [
	<!ENTITY ns_extend "http://ns.adobe.com/Extensibility/1.0/">
	<!ENTITY ns_ai "http://ns.adobe.com/AdobeIllustrator/10.0/">
	<!ENTITY ns_graphs "http://ns.adobe.com/Graphs/1.0/">
	<!ENTITY ns_vars "http://ns.adobe.com/Variables/1.0/">
	<!ENTITY ns_imrep "http://ns.adobe.com/ImageReplacement/1.0/">
	<!ENTITY ns_sfw "http://ns.adobe.com/SaveForWeb/1.0/">
	<!ENTITY ns_custom "http://ns.adobe.com/GenericCustomNamespace/1.0/">
	<!ENTITY ns_adobe_xpath "http://ns.adobe.com/XPath/1.0/">
]>
<svg version="1.1" xmlns:x="&ns_extend;" xmlns:i="&ns_ai;" xmlns:graph="&ns_graphs;"
	 xmlns="http://www.w3.org/2000/svg" xmlns:xlink="http://www.w3.org/1999/xlink" x="0px" y="0px" viewBox="0 0 1340 1080"
	 enable-background="new 0 0 1340 1080" xml:space="preserve">
<metadata>
	<sfw  xmlns="&ns_sfw;">
		<slices></slices>
		<sliceSourceBounds  bottomLeftOrigin="true" height="1013.89" width="1293" x="300" y="-1056.64"></sliceSourceBounds>
	</sfw>
</metadata>
<g id="Layer_1">
</g>
<g id="harita">
	
		<rect id="cerceve" x="84" y="93" fill="#2F94E0" stroke="#000000" stroke-width="1.9938" stroke-miterlimit="10" width="1229" height="960"/>
	<path fill="#FFFFFF" stroke="#000000" stroke-width="2" stroke-miterlimit="10" d="M184,266l-3.69-2.11V259l-3.31-5l-4-2l-4,2l-4,1
		l-8-1l1-5l-3-10l-4-8l4-6l4-5v-8v-10l-2-7l3-6l-4-4l-1-7l5-2l5-3l6,1l8,1l10,1l10,1h8l6,1l6-1l2-7v-8.78c0,0,0.12-10.44,1.56-11.33
		s-0.44-9.89,0-10.89s-3.56-6-3.56-6l-4-6l-3-3l-7-3l-7-3l-5-5l2-8l6-2l6,2l4,2h5l3-1c0,0,1.33,0,0.67-3c-0.67-3-2.44-9-2.44-9
		l5.34-1l1.44,2l5,2l0.89-4H1313l-1,119l-7,3l-6,2l-2,3l-2,6l4,6l6,9l6,9l2,4v23l-8,3c0,0-5,3-6,3s-12,2-12,2s-2-1-2-2s0-6,0-7
		s3-6,3-6l2-7l-3-4v-4l4-1l-1-5l-2-3l-5-2l-5,1l-5-4l1-4l3-3l2-5l-1.33-7h-19.56l-5.11,3l-5,5l-3-3l1.33-5l2.67-5l3-5c0,0,1-3,0-3
		s-6-1-6-1h-4l-6,4l-1,4l-6,3l-3,4l-1,4l-2,2l-6-1l-5,2v4l1,6l2,3l5-1l4,1l1,2l-1,5l2,3l4,1l4-3l3-5l4-1l2,2v2l3,1l5-1l3,2v3l-3,2
		c0,0-3,0-4,0s-6,3-6,3l-3,4h-3l-3,1.78l-5,8.22l-1,6l3,5l4,3l3,3l2,7v5l5,5l5,4l5,6l3,4l-2,5l-6,6l-1,4l-2,7l-1,7l-2,4l-3,3l-4,8
		l-6,11l-3,8l-6,8c0,0-4,2-5,3s-8,8-8,8l-10,4l-10,2l-9,6l-7,2l-7,2l-8,3l-4,1l-1,6l-1,3h-2.11l-0.89-4.78l-2-6.22h-2l-6-1
		c0,0-4-1-5,0s-6,3-6,3l-5,6l-6,7l-1,6l2,11l6,10l9,8l9,10l3,13l1,9l-1,10l-3,7l-5,8c0,0-5.78,0-6.89,0s-4.89,0-4.89,0l-3.22,2
		l-4.11,10l-5.89,7l-2-1l-1-13c0,0-2-4-3-4s-8-3-8-3s-8-8-8-9s-4-7-4-7s-4-2-5-3s-4-2-5-3s-3-4-3-4l-3-1l-3,2.22l-2,5.78l-1,14l-2,6
		l-1,6l1.78,7l-0.78,1l5,2.22l3,7.78l-13-6l-5.78-11l1.78-19l4-14l-3-14l-4-7l-2-14l-5-6l-6,8l-11,6l-1-1l-2-1l-1-4l1-6l-1-11l-3-8
		l-4.37-6l-5.63-4l-4-5l-3-6l-1-7l-1-5c0,0-2-1-3-1s-8,2.41-10,3.7s-7,3.3-8,3.3s-7,0-8,0s-7,3-7,3s-5,3-6,4s1,8,0,9s-2,5-4,5
		s-5,1-7,2s-4,3-4,3l-6,8l-5,4c0,0-2,4-3,5s-6,6-7,6s-6,4-6,4l-3,5l-6,1l-3,4l-2,11l1,9v7l-1,10l-2,8.85l-2,6.15l-4,1l-1,3l-1.48,5
		l-3.52,2l-3,6l-3,4l-5-3l-3-8l-3.37-7c0,0-2.63-7-2.63-8s-4-12-4-12s-4-6-4-7s-3-9-3-9l-4-11l-3-8c0,0-5-5-5-6s-4-9-4-9s0-10,0-11
		s0-8,0-9s0-9,0-9s-1-9-1-10s1-9,1-9l-3-4c0,0-2,0-3,1s0,6,0,6v2l-1,3c0,0-2,2-3,2s-4,3-4,3h-4l-4-2.07l-3-3.93l-5-5l-2-4h2
		c0,0,2,1,3,0s4-1,4-1l3-3l1-5h-5l-5,1h-4l-2-2l-1-3l1-4l-5-1h-4l-2-3c0,0-2-4-2-5s-2-4-2-4l-3-4c0,0-4,2-5,2s-9,2-10,2s-12-1-12-1
		l-9,2l-9-1l-6-1l-10-2h-5l-4-2l-5-1c0,0-2,0-2-1s0-5,0-7s-1-4-1-5s-2-3-2-3s-3,1-4,1s-5,2-6,3s-4,4-5,4s-4-1-4-1l-7-1l-10-8
		c0,0-8-3-8-4s-4-7-4-8s-2-8-3-9s-4-5-5-6s-10-3-10-3l-3,2c0,0-3,4-4,4s-3,1-3,1l1,7l7,7v6l3,5l4,6l4,7l3,9l4,3l3,5l3,2c0,0,6,2,7,2
		s11-1,11-1s6-2,7-2s5-8,6-9s8-12,8-12v5v7l2,3l-1,3l3,3l6,4l4,2c0,0,6,1,6,2s5,4,5,5s3,6,3,6l1,5c0,0-2,4-3,4s-5,5-5,5s-2,2-3,3
		s-2,2-3,2s-2,3-2,3l-1,12l-4,2c0,0-2,0-3,0s-3-1-3,0s-3,8-3,8l-4,1h-3l-1,4v3l-3,2h-3h-7c0,0,0,1-3,2s-4,1-5,1s-4,4-4,4v3l-2,4
		l-3,3l-5,1c0,0,1,1-2,1s-8,1.11-8,1.11l-5,0.89l-2,3l-4,3c0,0-3,4-4,4s-5-1-6,0s-6,4-6,4l-6,2l-6,3l-6,1h-5l-3-3l-1-5l-1-6l-2-9
		c0,0,0-4,0-5s0-7,0-7l-2-5c0,0-5-4-5-5s-5-7-5-7l-2-8l-5-8c0,0-2-5-3-6s-4-2-5-3s-5-5-5-6s0-7,0-8s-1-7-1-8s-3-7-3-7l-7-7l-3-1
		c0,0-1-5-1-6s-3-8-3-9s-4-7-4-7l-5-7l-2-5l-4-3l-2-3l-1-3l1-10l-1-1l-2,4v3l-1,4v4l-1,2l-3-1c0,0-3-3-3-4s-3-4-3-4s-2-3-2-4
		s-2-5-2-6s-1.56-3-1.78-3s-1,0-1,0l-0.22,5l1,3l3,6l3,6l4,6l1,7l3,7l5,9l1,5l2,6l2,3l2,6v4l4,3l5,6l2,5l1,4v6l1,3v5l2,6l1,4l4,3
		l4,4l5,5l1,8c0,0-1,4,0,5s1,6,1,6l5,4l8,4l5,5l7,8l6,8v2l1,3l1,5v5l2,3l5,1l5,1c0,0,8,0,8-1s5-3,5-3l7-2l9-1h5h4l5-2l6-3l4-3l4-2
		l-4,6l2,5c0,0,0,7-1,7s-3,4-3,4s2,4-1,7s-4,7-4,7l-3,6c0,0,0,4.33-1,4.67c-1,0.33-4,4.33-4,4.33l-3,6l-3,8l-2,5l-4,5l-4,6
		c0,0-3,2-4,3s-5,6-5,6l-10,7l-5,3l-5,5l-2,4l-4,4c0,0-4,5-5,5s-5,7-5,7l-7,7c0,0-1,5-2,5s-4,4-4,4s-4,3-4,4s-2,7-2,7l-3,6
		c0,0-3,4-3,5s-2,9-2,9l3,6c0,0,6,3,6,4s-3,2-3,2l-3,1c0,0,0,1,0,2s1,4,1,4v3v4c0,0,3,4,3,5s2,5,2,5l2,3l2,3c0,0-1,0,0,1s1,2,1,2
		l1,6l1,4l-1,6l2,8l-1,4l-1,4l1,6v4v9l-2,5c0,0-2,1-3,1s-5,1-5,1l-5,1c0,0-4,1-5,2s-5,2-5,2l-6,5l-2,4c0,0-2,3-3,4s-2,1-4,3
		s-3,3-3,3l-5,2l-3,2v4l1,4l2,5l3,6v5l2,5l1,7l-1,4v5l-1,2l-5,3l-2,2l-5,2c0,0-2,2-3,2s-6,2-6,2l-2,3v5l3,3l1,5l-2,7c0,0-2,2-2,3
		s-4,7-4,7l-4,5l-4,3v6l-3.67,4l-3.33,6c0,0-3,7-4,7s-4,4-4,4l-7,8c0,0-3,3-5,4s-5,7-6,7s-6,0-6,1s-4,3-5,3s-8,2-8,2l-9-1
		c0,0-2-1-5,0s-4,1-5,1s-5,2-5,2s-2,4-3,4s-1,2-3,3s-4,1-4,1s-3-2-4-2s-1,0-3-1s-3-2-3-2s-5-2-6-2s-4-1-4-3s-1-5-1-5l-2-5l2-5l1-7
		l-5-7c0,0-3-6-3-7s-2-9-2-10s-3-7-3-8s-3-7-3-7l-6-7l-5-9l-2-15l-3-12l-1-14v-10l-4-6c0,0-4-10-5-10s-4-8-4-8s-6-11-7-12s-3-7-3-7
		s0-7,0-8s1-8,1-9s2-10,2-11s3-7,3-7l3-8l2-5l4-4c0,0,2-2,2-6s0-10,0-10s-1-5-1-6s-2-5-2-5l-3-7v-9c0,0-2-5-2-7s-5-15-5-15l-4-8
		l-6-6l-3-7l-4-6c0,0-5-4-5-5s-4-5-5-6s-2-7-2-7l5-4c0,0,2-8,2-9s3-7,3-7v-8l-1-10l-1-5l-5-4l-5-2l-5-1l-5,1l-9,2l-4-2c0,0-3-6-3-7
		s-3-7-3-7s-3-4-4-4s-6-1-6-1h-6l-10,3l-6,1l-6,3l-7,3l-8,4l-6,3l-8-2l-12-2l-11,1l-10,4l-7,4l-7-3l-6-4l-6.67-7l-9.33-8l-11-8
		l-3.33-6.11c0,0-2.67-6.89-2.67-7.89s-4-7-4-7l-5-7l-6-4l-4-6l-4-6c0,0-6-5-6-6s-1-4-1-5s3-5,3-5l-1-4l-4-3l-1-4c0,0,1-3,2-3
		s2-4,2-4l3-6c0,0,2-3,2-4s1-5,1-6s1-7,1-7l-1-6l-2-5l-1-7l2-5c0,0-4-3-5-5s-2-4-3-4s0-6,0-6s4-4,4-5s3-6,3-7s2-7,3-7s3-6,3-7
		s4-3,4-4s3-5,3-6s2-6,2-6s5-5,5-6s6-9,6-9l4-6l6-2l5-3l3.33-2.11L143,344l4-2c0,0,2-1,2-2s2-3,2-3l2-4v-5l1-3l-2-3l-3-3l-1-4l3-2
		l2-5l3-4l4-6l5-2l5-5l4-2l2-3l2-5l1-5l3-3v-4l3-1l2,2l2,4l3,2h3h5l4,1h6h5l5-2l3-4c0,0,3-2,4-3s6-4,6-4l5-2l5-2l5-1l6-1h5h5l8-2
		l5,3l7-3c0,0,4-2,5-1s6,1,6,1l3,1h3l3-2l2-2l4-2l3-1h2c0,0,3,2,3,3s-1,2-1,3s-1,2,0,2s1,1,1,1l3-3l1-1c0,0,0,0,1,0s1,2,1,2
		s-1,3-2,3s-2,2-2,2s0,0,0,1s-1,6-1,6l3,2l2,3c0,0-1,6-2,6s-3,0-3,1s-3,2.81-3,2.81s0,6.07,0,5.63c0-0.44,2,4.56,3,4.56s9,4,9,4l7,4
		l5,4c0,0,1,0,3,1s6,0,6,0s4-1,5-1s3,0,3,0l2,3l2,7l3,2c0,0,1-1,2,0s4,1,5,1s3,1,4,1s2,0,4,2s3,2,3,2l5,5l4.89,5h3.26
		c0,0,1.85,1.3,2.85-0.85c1-2.15,0-5.93,0-5.93s0-10,0-11.11s1-6.11,1-6.11l2-2c0,0,2-4,3-4s8-3,8-3s5,0,6,1s5,0,6,2s6,3,6,4
		s3,2,3,2s2,1,3,2s7,3,8,3s10,1,10,1s2,4,5,4s7,0,8,1s3,1,6,2s8,3,8,3l5-5l2-4c0,0,2,0,3,0s4,1,4,1l4,3c0,0,4,1,6,1s10-1,10-1l4-3
		c0,0,3-4,3-5s3-9,3-9l2-6l1-7l3-6l1-6l-1-6l-1-5l1-3c0,0,2,1,2,0s0-3,0-3l2-5c0,0-1-1-2-1s-2,2-3,2s-1,0-1,1s-1,2-2,3s-1,1-1,1
		l-1,1h-3h-2c0,0-3,1-4,1s-6,1-6,1l-2-1h-2l-3-2c0,0-1-2-2-2s-5-3-5-3l-3-1l-5-2c0,0-2,0-3,1s-1,4-1,4l1,2l-2,2l-3-0.19l-5-0.81
		c0,0-1-2-1-3s-2-2-2-3s-3-2-3-2s-1,0-3-1s-6-2-6-2l-1-4v-2v-5l-1-4l-3-2h4v-2v-2l-2-3l-1-4l-4.26-2l-1.74-2v-2l2-2l2-2l1-2h2h2l3,1
		l2,1h4h2l4-1l2-3l-1-2l-3-1l-2-1l-4-1l-3-1h-1l-1,3l-2,1h-2l-3,1h-3h-2l-4-1c0,0-3-2-4-2s-4,0-5,0s-4,2-4,2l-3,2v2l-3,1h-6l-1,1
		l-1,4l2,3l2,4l-2,6c0,0-1,2,1,2s1,1,3,1s4,2,5,2s4,5,4,5l-1,4h-1h-1l-1-1c0,0-1-1-2-2s-3-1-4-2s-1-3-3-3s-3,0-3,0s3-1-2,0s-7,1-7,1
		l-1-1l-1-2v-2l-1-3l-3-2l-3-4l-2-3c0,0-2-2-2-3s-2-4-1-5s1-3,1-3v-6c0,0-1-2,0-4s1-5,1-5l-2-3c0,0-4-1-5-2s-3-2-3-2l-5-4l-4-3
		c0,0-8-4-8-5s-2-3-2-3l-4-3c0,0-2-1-3-2s-3-5-3-5s0-2-1-2s-1-3-1-4s-1-3-1-3v-2l-1-1h-2c0,0,0,1-1,2s-2.69,1.33-2.69,1.33L346,155
		l-4-3c0,0,0-1-1-2s-4-3-4-3s1,0-3,0s-4-2-5,1s-1,3-1,3l-1,5c0,0,0,1,1,2s1,2,1,2c1,1,4,4,4,4l1,1l5,6l4,2c0,0,4,2,4,3s1,6,1,6
		s-1,1,0,2s2,1,2,2s1,3,2,4s3,4,3,4s0,0,2,1s3,1,3,1h3l3,1l-2,3l1,2l4,2h1c0,0,5,1,6,2s2,0,3,2s3,3,4,4s1,2,2,3s1,1,1,2s-1,2-1,2
		l-1,1l-2-2l-3-2l-1-2l-2-1c0,0,1-1-2-1s-2,0-3,1s-2,1-2,1v3c0,0,0,1,0,2s-0.37,2,0.81,3s0.19,3,1.19,3s3-1,3,1s0,2,0,3s-2,1-2,1h-2
		l-2,7l-2,4l-2,1l-1-3l2-5c0,0,1-2,1-3s0-3,0-3v-3v-5c0,0-2-1-3-2s-2-3-2-3h-3l-2-1l-2-1v-2v-2l-3-2c0,0,0,1-1,0s-4-2-4-2l-3-1l-7-5
		l-3-2l-5-6l-3-5l-4-5l-2-4l-2-7l-2-4l-5-4c0,0-2,0-3,0s-2,0-3,1s-4,2-4,2l-2,3l-1,2l-2,1h-3l-2,3l-1,2l-2,1l-1,1h-6l-8-2h-2l-3-1
		l-6,2l-3,1l-2,4l1,4c0,0,1,1,1,3s0,4,0,5s1,1,0,2s-4,3-4,3l-3,1l-4,2l-6,2c0,0,2-3,0,2s-3,5-3,5l-2,2l-2,1c0,0-2,0-2,1s-1,1-1,2
		s0,1-1,2s-3,6-3,6s-2,1,0,3s1,1,2,2s1,0.22,2,2.11s2,0.89,2,1.89s-1,3-1,3l-5,1c0,0-1-4-1,0s0,5,0,5l-3,3l-4,4l-4,3l-1-2l-2,4l-6,1
		h-3h-5h-3c0,0-2,0-2,1s0,3,0,3h-3l-2-1h-1l-1,1v1l-1,1v1v1L184,266z"/>
	<path fill="#2F94E0" stroke="#000000" stroke-width="1.9938" stroke-miterlimit="10" d="M474,201l4,3l7,2h2.74c0,0,1.26,1,2.26,1
		s4-1,4-1l3.07-5l2.93-3l6-3l4-2h6.04l3.96,1l8,2l2.11,4l2.89,1l7,1l4,4h7c0,0,6.93,1,6.96,1s9.04,1,9.04,1l4-2l7-3
		c0,0,0-3.15,0-4.07c0-0.93,1-8.93,1-8.93l-2-5l-4-5l-7-3.89l-7-5.11l-6-7l-7-6l-3-3l-4-2c0,0-5-2-3-3s4,0,5-1s4-1,4-1l1-4
		c0,0,0-3,1-3s1.44,0,2.22,0s1.33,0,1.33,0l-1.56-5v-4h4.96l5.04-5c0,0,0,0,0-1s-2-2-3-2s-6,0-7,1s-2,4-3,4s-6,0-6,0s-3,3-4,3
		s-8,2-8,2v3c0,0-2,1-3,2s-6,3-6,3l-5-2h-2l-3,1h-5l-2-2l-2-3l-1-4l-2-3v-1l-3,5l-3,1l-4,2v3l-1,3l-4,3l-4,3l-3,3v4l2,4h-4l-3,4
		l-1,4v3.63c0,0,1,2.37,1,3.37s-2,4-2,4h-4l-2,3v3.41v4v3.26l2,3.33l1,1l2,1l2,1l1,1l2,1h1L474,201z"/>
	<path fill="#FFFFFF" stroke="#000000" stroke-width="2" stroke-miterlimit="10" d="M518,160l2-3l3-1h3.33h3.33l3.33-2h1.33
		c0,0-1.33-3-2.33-3s-5.44,0-5.44,0l-2.56-1l-2-2l-1.5-2.22l-2.5-1.56l-3-1.22l-1-1l-1,1l-4,3c0,0-2,0-2,1s1,3,1,3s0.22,1,1.11,1
		s4.89,1,4.89,1s2,1,1,2s-2,2-2,3s-0.44,2-0.22,3s0.22,2,0.22,2h1.22c0,0-0.44,1,0.67,0c1.11-1,1.11-1,1.11-1L518,160z"/>
	<path fill="#FFFFFF" stroke="#000000" stroke-width="2" stroke-miterlimit="10" d="M417,256l-6-6c0,0-3-3-3-5s0-3.56,0-3.56h4.5
		L419,241c0,0,3,0,4,1s4,3,3,5s-3.74,1.5-3.74,1.5S421,249,421,250s0,0,1,2s0.93,3-0.04,4C421,257,417,256,417,256z"/>
	<polygon fill="#FFFFFF" stroke="#000000" stroke-width="2" stroke-miterlimit="10" points="426.2,273.15 431.15,273.15 
		431.15,275.81 	"/>
	<path fill="#FFFFFF" stroke="#000000" stroke-width="2" stroke-miterlimit="10" d="M437.67,274.48c0,0-0.59-2.19,2.37-1.33
		c2.96,0.85,7.11,1.33,7.11,1.33s0.89-0.85,2.37,1.33S448,279,448,279h-7.07c0,0-2.69-2.05-3.31-3.02S437,275,437,275L437.67,274.48
		z"/>
	<path fill="#FFFFFF" stroke="#000000" stroke-width="2" stroke-miterlimit="10" d="M501.67,279l1.19-3.02h1.48H507l2.96-1.49
		c0,0,1.3,0.48,2.67,0c1.37-0.48,2.96,0,2.96,0v-1.33v2.67l-3.26,0.26L510,278l-1.37,1l-1.63,2.44h-2.07c0,0-1.22,2.44-2.07,0
		C502,279,501.67,279,501.67,279z"/>
	<path fill="#FFFFFF" stroke="#000000" stroke-width="2" stroke-miterlimit="10" d="M357,253c0,0,1-1.74,0-2.37
		c-1-0.63,0.44-3.56,0.44-3.56L360,243v-2c0,0-2.71,0.67-3.35,1.33C356,243,354,243,354,243l-5,1c0,0-1-1-2-1s-2,0-4,0s-3-1-3-1
		l-4,1v2.3l5.37,3.43L346,252l4,3c0,0,0.48-1,1.74,0c1.26,1,1.26,1,1.26,1h3.78L357,253z"/>
	<path fill="#FFFFFF" stroke="#000000" stroke-width="2" stroke-miterlimit="10" d="M304,229c-1-1-3-5-3-5s0-2.19,0-3.59
		s0-6.22,0-6.22v-4.15l4.52-2.04l3.48-4l5,2c0,0,2,2.89,0,3.44s-3,3.56-3,4.56s0,6,0,6s0.11-1-0.44,2c-0.56,3-2.61,4.63-2.61,4.63
		L304,229z"/>
	<polygon fill="#FFFFFF" stroke="#000000" stroke-width="2" stroke-miterlimit="10" points="307,198 304,194 304,189 304,186.63 
		310,185 311.44,191.5 307.94,196.7 	"/>
	<polygon fill="#FFFFFF" stroke="#000000" stroke-width="2" stroke-miterlimit="10" points="254,227 252.78,222 253.39,220.7 
		256.63,222 256.63,223.85 254.7,225.44 	"/>
	<line fill="#FFFFFF" stroke="#000000" stroke-width="2" stroke-miterlimit="10" x1="243.3" y1="231" x2="243.3" y2="233.15"/>
	<path fill="#FFFFFF" stroke="#000000" stroke-width="2" stroke-miterlimit="10" d="M593,844c0,0-1-8.44,0-9.22s5-8.78,5-8.78
		l3.22-7c0,0-0.78-3.22,0-5.11c0.78-1.89-4.33-13.78-4.33-13.78l0.04-6.67l4.37-8.44l3.7-4l8-6c0,0,2,1,6-2s9-9,9-9l11-6l4-9l4-7.11
		c0,0,5,2.11,4,7.11s2.26,6.11,0.13,11.56C649,766,647,773.89,647,773.89s0,4.89,0,8c0,3.11,0,3.11,0,3.11s-1,10-3,11s-5,5-5,7
		s-4,13-4,13l1,7c0,0,0,6-1,8s-4,15-4,15s-3,9-4,11s1,10-1,11s-9,5-9,5h-4.67H603l-4-7l-4-5l-2.44-8l3.44-5L593,844z"/>
	<path fill="#FFFFFF" stroke="#000000" stroke-width="2" stroke-miterlimit="10" d="M1110,682l-15-14l-20-17l-6-16v-8.67L1054,616
		v-8.04L1039,597l-13-14v-9h7.22l8.78,6l10,7l8,9l8,9.59l3,4.41c0,0,3-3,7,2s12,13,12,13l6,12l2,9l12,3.44l6,8.56v9.22L1110,682z"/>
	<path fill="#FFFFFF" stroke="#000000" stroke-width="2" stroke-miterlimit="10" d="M1126,696l-10-6.26l5-10.67h5l9.15,8.46
		c0,0-6.85,5.5,0,3.98c6.85-1.52,11.85-3.98,11.85-3.98h7.7h8.89c0,0,9.41,2.46,10.41,4.46s3.81,4,3.81,4l-8.81,12h-8.96l-13.04-8
		c0,0,0,0-4,0s-10,0-10,0l-4-1L1126,696z"/>
	<path fill="#FFFFFF" stroke="#000000" stroke-width="2" stroke-miterlimit="10" d="M1177.81,655.96L1164,658l-6.33-2.04
		l-10.67-9.48l-0.09-7.7c0,0-0.09-5.63,0-7.7C1147,629,1142,624,1142,624l-4-10l8.91-4.26h3.06h4.74c0,0,0.11-1.19,3.2-2.96
		C1161,605,1168,596,1171,595s16-11,16-11l9-7l8-16l13,8l4.07,5l-6.07,12l-6,2l4,12c0,0,4,3,5,6s3,9,3,9l0.07,13l-11.07-7l-3.74,7
		l-4.26,8c0,0-3,17-3,18s-8,9-8,9l-6-3L1177.81,655.96z"/>
	<path fill="#FFFFFF" stroke="#000000" stroke-width="2" stroke-miterlimit="10" d="M1229,674c0-2,0-11.78,0-13.89
		c0-2.11-4-10.11-4-11.11s0-7.85,0-7.85l7-2.37c0,0,1.15-5.22,5.07,0S1245,644,1245,646s0,9.23,0,9.23s-2.82,0.82-5.83,2.09
		c-3.46,1.47-7.17,3.54-7.17,5.68c0,4,3,3.37,0,7.19S1229,674,1229,674z"/>
	<path fill="#FFFFFF" stroke="#000000" stroke-width="2" stroke-miterlimit="10" d="M1242.41,663c1.59,2,5.59,4,5.59,4
		c4,0,13.19,6,11.59,0c-1.59-6-4.59-8-4.59-8s-0.82-1.54-3.91-3.77c-3.09-2.23-6.09,0-6.09,0L1242.41,663z"/>
	<path fill="#FFFFFF" stroke="#000000" stroke-width="2" stroke-miterlimit="10" d="M1199.15,708c-5.15,0-10.15-5-10.15-5
		S1204.3,708,1199.15,708z"/>
	<path fill="#FFFFFF" stroke="#000000" stroke-width="2" stroke-miterlimit="10" d="M1215.15,708c0,0,4-1,5.93,0
		s10.93-0.44,10.93-0.44h6.26L1232,703h-16.85h-3.56L1215.15,708z"/>
	<path fill="#FFFFFF" stroke="#000000" stroke-width="2" stroke-miterlimit="10" d="M1259.78,719.37L1264,713h2.7l7.11-5l8.89-2.32
		h4.74c0,0-4.78,5.37-7.11,6.85c-2.33,1.48-0.11,0.29-6.72,3.88c-6.61,3.59-9.87,2.96-9.87,2.96H1259.78z"/>
	<path fill="#FFFFFF" stroke="#000000" stroke-width="2" stroke-miterlimit="10" d="M1251.09,619.22c0,0,2.91-0.22,4.91-0.22
		s7.74,0,7.74,0s0.26-3,4.26-4s9.37,0,9.37,0l-7.37,7l-5.77,2.56h-21.82h-4.15l-3.26-2.37v-7.63l7.41,2.3l2.59,2.7L1251.09,619.22z"
		/>
	<path fill="#FFFFFF" stroke="#000000" stroke-width="2" stroke-miterlimit="10" d="M1273.61,569.44l-7.5-8.44
		c0,0,4.61-3.37,3.75-5.19s0-5.31,0-5.31l3.75-4.76l3.76-2.37l3.56-3.37l11.07,5c0,0-4.11,9.44-4.56,9.72s-8.39,4.06-8.39,4.06
		l-1.69,4.74L1273.61,569.44z"/>
	<polygon fill="#FFFFFF" stroke="#000000" stroke-width="2" stroke-miterlimit="10" points="1251.09,550.5 1256.19,550.5 
		1256.19,548.11 1259.78,548.11 1259.78,554.72 1251.09,557 	"/>
	<path fill="#FFFFFF" stroke="#000000" stroke-width="2" stroke-miterlimit="10" d="M1259.78,536.85c0,0-8.59-4-8.68-5.93
		c-0.09-1.93,0-5.93,0-5.93l8.68,5.93V536.85z"/>
	<polygon fill="#FFFFFF" stroke="#000000" stroke-width="2" stroke-miterlimit="10" points="1273.61,517.89 1270,513 1270,510.19 
		1277,518 1277.37,514.09 1277.37,510.19 1273.61,510.19 	"/>
	<polygon fill="#FFFFFF" stroke="#000000" stroke-width="2" stroke-miterlimit="10" points="1241,509 1238,503 1244,501 1245,504 
		1246,508 1242,509 	"/>
	<path fill="#FFFFFF" stroke="#000000" stroke-width="2" stroke-miterlimit="10" d="M1253,520l1.85-2c0,0,3.07,1,3.11,2
		c0.04,1,0,1.74,0,1.74L1257,523h-1.57h-1.77l-1.36-2.5L1253,520z"/>
	<path fill="#FFFFFF" stroke="#000000" stroke-width="2" stroke-miterlimit="10" d="M1241,496l1-6.26c0,0,0-1.33-0.5-1.04
		s-3.5-0.89-3.5-0.89l-5-1.81l-1-3.52l1-5.48l3-2c0,0,1,1,1,0s0-4.04,0-4.52s-1-11.48-1-11.48l1-4.96l3-3.04h3.59
		c0,0,1.41,1.52,2.41,1.26c1-0.26,5.09,3.85,5.09,3.85l1.21,5.93L1253,466c0,0,3-2,1,2s-2.95,5.5-2.95,5.5L1249,474l-2,3
		c0,0-1,0.96-1,1.48s0,0,0,3.26c0,3.26-1,4.11,0,5.19c1,1.07,1,0.07,1,3.07s-0.3,6-0.15,6c0.15,0-0.85,2.04-0.85,2.04h-4L1241,496z"
		/>
	<path fill="#FFFFFF" stroke="#000000" stroke-width="2" stroke-miterlimit="10" d="M1239,410l5-6v-9.52l4-5.48v-4.3h-4.5
		c0,0,1.19,1.26-0.16,1.78s-4.34,4.3-4.34,4.3s-1,4.22-1,5.22s-2,3-2,4s-1,4-1,5s2.22,5,2.22,5H1239z"/>
	<path fill="#FFFFFF" stroke="#000000" stroke-width="2" stroke-miterlimit="10" d="M1297.81,624.56L1302,621c0,0,2-3,2-4
		s0-2.96,0-2.96s-3.19-0.96-3.09,0C1301,615,1299,616,1299,617s-1.37,3.19-1.19,4.59S1297.81,624.56,1297.81,624.56z"/>
	<path fill="#FFFFFF" stroke="#000000" stroke-width="2" stroke-miterlimit="10" d="M1295,640l2.8,1c0,0-0.2,0.78,0,0.89
		c0.2,0.11-2.8,2.11-2.8,2.11V640z"/>
	<path fill="#FFFFFF" stroke="#000000" stroke-width="2" stroke-miterlimit="10" d="M1286.11,661.95C1286,661,1284,659,1284,659
		l1.06-3.77h4.31c0,0-0.37,1.77,1.63,1.77s3.81-0.82,3.41,1.59C1294,661,1295,661,1294,661s-3.44,0.95-3.44,0.95l-4.74,1.05
		L1286.11,661.95z"/>
	<path fill="#FFFFFF" stroke="#000000" stroke-width="2" stroke-miterlimit="10" d="M1313,771.81l-6-2.81l-1.78,2.81L1304,773
		l-3.52-2l-1.48-6c0,0-1-1-1-2s-2-5-3-5s-6,0-6,1s-5.11,5-5.56,6.5S1279,771,1279,771s-1.67-4-1.33,2c0.33,6-4.06,8.74-4.06,8.74
		s-2.98-2.26-3.8,0C1269,784,1268,786,1267,787s-2,3-2,4s-1,2-2,2s-2-1-2-1s-2-3-2-5s4-5.78,0-2.89c-4,2.89-4,1.89-5,3.89s-1,2-1,5
		s-2,5-1,5s1,1,1,1s1,1,0,3s-2,4-3,4s-1,0-2,1s-7,3-7,4s-4,2-4,3s-3.93,5-3.93,5l-6.07,3h-2.52l-5.48,1l-3,1l-5,2c0,0-2.11,0-3.56,0
		s-3.44,0-4.44,1s-6,2-6,3s-6,4-6,4s0,1,0,2s-1,1-2,3s-4,2-4,4s-2-2-3,6s-1,8-1,8s1,0,1,2s-1,1,1,5s3,5,2,7s-2,2-2,3s0-2,1,3
		s1,3,1,5s1,2-1,3s-2,0-2,1s-1,4,0,5s1,4,2,4s1-1,2,2s2,3,2,6s3,8,3,8s-1-1,0,1s-1,3-1,3l1,4l-1,2l2,6c0,0-1-6,1,2s3,9,3,9l2,2
		c2,4,2,2,2,6s0,4,0,6s-1,4-1,5s-4,5-4,5s-5-3-4,2s3,6,3,6s3,3,4,3s3,2,4,2s1.52,1,4.26,1s1.44,0,4.59,0c3.15,0,9.15-1,12.15-3
		s4-3,4-3s-4,2,1-2s6-5,6-5s-1,0,2,0s4,0,6,0s2,0.44,5,0.22s5-0.22,7-0.22s-2-1,3-1s8,0,9-1s2,3,3-3s0-5,1-6s0-2,4-3s5-2,5-2
		s0-1,2-1s4,0,4,0h6c0,0,7-3,8-3s7,0,7,0s-1-2,2-2s4,0,4,0l1-0.44V771.81z"/>
	<path fill="#FFFFFF" stroke="#000000" stroke-width="2" stroke-miterlimit="10" d="M901,570h9.56c0,0,1.44-1,1.44-3s-1-6.63,0-8.81
		s0-9.19,0-9.19l-5.28-5.04l-5.72-6.22c-1,3.26,1,2.22,0,4.74c-1,2.52-3,5.52-3,6.52s0,5.04,0,6.52c0,1.48,0,6.52,0,8
		C898,565,901,570,901,570z"/>
</g>
<g id="boylam">
	<line fill="none" stroke="#000000" stroke-width="1.9938" stroke-miterlimit="10" x1="84" y1="93" x2="84" y2="1053"/>
	
		<line id="_x31_0W" fill="none" stroke="#000000" stroke-width="1.9938" stroke-miterlimit="10" x1="146" y1="94" x2="146" y2="1054"/>
	
		<line id="_x31_00E" fill="none" stroke="#000000" stroke-width="1.9938" stroke-miterlimit="10" x1="1065" y1="94" x2="1065" y2="1054"/>
	
		<line id="_x31_10E" fill="none" stroke="#000000" stroke-width="1.9938" stroke-miterlimit="10" x1="1147" y1="94" x2="1147" y2="1054"/>
	
		<line id="_x31_0E" fill="none" stroke="#000000" stroke-width="1.9938" stroke-miterlimit="10" x1="316" y1="93" x2="316" y2="1053"/>
	
		<line id="_x30_" fill="none" stroke="#000000" stroke-width="1.9938" stroke-miterlimit="10" x1="231" y1="93" x2="231" y2="1053"/>
	
		<line id="_x32_0E" fill="none" stroke="#000000" stroke-width="1.9938" stroke-miterlimit="10" x1="398" y1="93" x2="398" y2="1053"/>
	
		<line id="_x33_0E" fill="none" stroke="#000000" stroke-width="1.9938" stroke-miterlimit="10" x1="480" y1="93" x2="480" y2="1053"/>
	
		<line id="_x34_0E" fill="none" stroke="#000000" stroke-width="1.9938" stroke-miterlimit="10" x1="566" y1="93" x2="566" y2="1053"/>
	
		<line id="_x35_0E" fill="none" stroke="#000000" stroke-width="1.9938" stroke-miterlimit="10" x1="647" y1="93" x2="647" y2="1053"/>
	
		<line id="_x36_0E" fill="none" stroke="#000000" stroke-width="1.9938" stroke-miterlimit="10" x1="731" y1="93" x2="731" y2="1053"/>
	
		<line id="_x37_0E" fill="none" stroke="#000000" stroke-width="1.9938" stroke-miterlimit="10" x1="817" y1="93" x2="817" y2="1053"/>
	
		<line id="_x38_0E" fill="none" stroke="#000000" stroke-width="1.9938" stroke-miterlimit="10" x1="898" y1="93" x2="898" y2="1053"/>
	
		<line id="_x39_0E" fill="none" stroke="#000000" stroke-width="1.9938" stroke-miterlimit="10" x1="985" y1="94" x2="985" y2="1054"/>
	
		<line id="_x31_20E" fill="none" stroke="#000000" stroke-width="1.9938" stroke-miterlimit="10" x1="1232" y1="93" x2="1232" y2="1053"/>
	<line fill="none" stroke="#000000" stroke-width="1.9938" stroke-miterlimit="10" x1="1313" y1="94" x2="1313" y2="1054"/>
</g>
<g id="enlem">
	<line id="_x35_0N" fill="none" stroke="#000000" stroke-miterlimit="10" x1="80" y1="93" x2="1315" y2="93"/>
	<line id="_x33_0N" fill="none" stroke="#000000" stroke-width="2" stroke-miterlimit="10" x1="83" y1="334" x2="1315" y2="334"/>
	<line id="_x34_0N" fill="none" stroke="#000000" stroke-width="2" stroke-miterlimit="10" x1="82" y1="222" x2="1313" y2="222"/>
	<line id="_x32_0N" fill="none" stroke="#000000" stroke-width="2" stroke-miterlimit="10" x1="81" y1="437" x2="1313" y2="437"/>
	<line id="_x31_0N" fill="none" stroke="#000000" stroke-width="2" stroke-miterlimit="10" x1="81" y1="534" x2="1313" y2="534"/>
	
		<line id="_x30__00000107561790543773571890000015561163361842571924_" fill="none" stroke="#000000" stroke-width="2" stroke-miterlimit="10" x1="82" y1="629" x2="1313" y2="629"/>
	<line id="_x31_0S" fill="none" stroke="#000000" stroke-width="2" stroke-miterlimit="10" x1="82" y1="724" x2="1313" y2="724"/>
	<line id="_x33_0S" fill="none" stroke="#000000" stroke-width="2" stroke-miterlimit="10" x1="82" y1="924" x2="1313" y2="924"/>
	<line id="_x32_0S" fill="none" stroke="#000000" stroke-width="2" stroke-miterlimit="10" x1="82" y1="819" x2="1313" y2="819"/>
	<line id="_x34_0S" fill="none" stroke="#000000" stroke-width="2" stroke-miterlimit="10" x1="82" y1="1036" x2="1313" y2="1036"/>
</g>
<g id="etiket">
	<text transform="matrix(0.7846 0 0 1 125.0005 83.8896)" font-family="'Articulate'" font-size="48.4454px">10°</text>
	<text transform="matrix(0.7846 0 0 1 22.0005 1045.8896)" font-family="'Articulate'" font-size="48.4454px">40°</text>
	<text transform="matrix(0.7846 0 0 1 22.0005 939.8896)" font-family="'Articulate'" font-size="48.4454px">30°</text>
	<text transform="matrix(0.7846 0 0 1 22.0005 836.8896)" font-family="'Articulate'" font-size="48.4454px">20°</text>
	<text transform="matrix(0.7846 0 0 1 22.0005 736.8896)" font-family="'Articulate'" font-size="48.4454px">10°</text>
	<text transform="matrix(0.7846 0 0 1 43.1357 645.8896)" font-family="'Articulate'" font-size="48.4454px">0°</text>
	<text transform="matrix(0.7846 0 0 1 22.0005 550.8896)" font-family="'Articulate'" font-size="48.4454px">10°</text>
	<text transform="matrix(0.7846 0 0 1 22.0005 451.8896)" font-family="'Articulate'" font-size="48.4454px">20°</text>
	<text transform="matrix(0.7846 0 0 1 22.0005 347.8896)" font-family="'Articulate'" font-size="48.4454px">30°</text>
	<text transform="matrix(0.7846 0 0 1 22.0005 232.8896)" font-family="'Articulate'" font-size="48.4454px">40°</text>
	<text transform="matrix(0.7846 0 0 1 22.0005 108.8896)" font-family="'Articulate'" font-size="48.4454px">50°</text>
	<text transform="matrix(0.7846 0 0 1 221.0005 83.8896)" font-family="'Articulate'" font-size="48.4454px">0°</text>
	<text transform="matrix(0.7846 0 0 1 292.0005 83.8896)" font-family="'Articulate'" font-size="48.4454px">10°</text>
	<text transform="matrix(0.7846 0 0 1 373.0005 83.8896)" font-family="'Articulate'" font-size="48.4454px">20°</text>
	<text transform="matrix(0.7846 0 0 1 456.0005 83.8896)" font-family="'Articulate'" font-size="48.4454px">30°</text>
	<text transform="matrix(0.7846 0 0 1 538.0005 84.8896)" font-family="'Articulate'" font-size="48.4454px">40°</text>
	<text transform="matrix(0.7846 0 0 1 622.0005 83.8896)" font-family="'Articulate'" font-size="48.4454px">50°</text>
	<text transform="matrix(0.7846 0 0 1 704.0005 84.8896)" font-family="'Articulate'" font-size="48.4454px">60°</text>
	<text transform="matrix(0.7846 0 0 1 794.0005 84.8896)" font-family="'Articulate'" font-size="48.4454px">70°</text>
	<text transform="matrix(0.7846 0 0 1 873.0005 83.8896)" font-family="'Articulate'" font-size="48.4454px">80°</text>
	<text transform="matrix(0.7846 0 0 1 1121.0005 85.8896)" font-family="'Articulate'" font-size="48.4454px">110°</text>
	<text transform="matrix(0.7846 0 0 1 1034.0005 83.8896)" font-family="'Articulate'" font-size="48.4454px">100°</text>
	<text transform="matrix(0.7846 0 0 1 958.0005 83.8896)" font-family="'Articulate'" font-size="48.4454px">90°</text>
	<text transform="matrix(0.7846 0 0 1 1209.0005 83.8896)" font-family="'Articulate'" font-size="48.4454px">120°</text>
	
		<rect x="114.5" y="1007.5" fill="#FFFFFF" stroke="#000000" stroke-width="0.989" stroke-miterlimit="10" width="224" height="16"/>
	<rect x="115.5" y="1007.5" fill="#FFFFFF" stroke="#000000" stroke-miterlimit="10" width="75" height="16"/>
	
		<rect x="190.5" y="1007.5" fill="#020202" stroke="#000000" stroke-width="1.0067" stroke-miterlimit="10" width="75" height="16"/>
	<text transform="matrix(0.9171 0 0 1 109.3325 996.2686)" font-family="'MyriadPro-Regular'" font-size="26.9251px">0</text>
	<text transform="matrix(0.9171 0 0 1 171.3325 996.2686)" font-family="'MyriadPro-Regular'" font-size="26.9251px">1000</text>
	<text transform="matrix(0.9171 0 0 1 245.3325 996.2686)" font-family="'MyriadPro-Regular'" font-size="26.9251px">2000</text>
	<text transform="matrix(0.9171 0 0 1 324.3325 996.2686)" font-family="'MyriadPro-Regular'" font-size="26.9251px">3000</text>
	<text transform="matrix(0.9422 0 0 1 343.8892 1021.752)" font-family="'MyriadPro-Regular'" font-size="20.9948px">km</text>
	<polygon fill="#FCFAFA" stroke="#000000" stroke-width="3" stroke-miterlimit="10" points="1165,268 1187,183 1213.14,274.78 
		1187.5,257.5 	"/>
	<polygon fill="#F20C0C" stroke="#000000" stroke-miterlimit="10" points="1187.5,258.5 1186.77,183.9 1212.5,273.5 	"/>
	<text transform="matrix(1 0 0 1 347.5547 514.5352)" font-family="'MyriadPro-Regular'" font-size="49.6733px">Afrika</text>
	<text transform="matrix(1 0 0 1 937.5547 282.5352)" font-family="'MyriadPro-Regular'" font-size="49.6733px">Asya</text>
	<g>
		<text transform="matrix(0.9878 0 0 1 824.4551 690.4375)"><tspan x="0" y="0" fill="#030D89" font-family="'MyriadPro-Regular'" font-size="43.5338px">Hint</tspan><tspan x="-52.07" y="52.24" fill="#030D89" font-family="'MyriadPro-Regular'" font-size="43.5338px">Okyanusu</tspan></text>
	</g>
	<text transform="matrix(0.9878 0 0 1 146.3271 690.4375)"><tspan x="0" y="0" fill="#030D89" font-family="'MyriadPro-Regular'" font-size="43.5338px">Atlas</tspan><tspan x="-45.86" y="52.24" fill="#030D89" font-family="'MyriadPro-Regular'" font-size="43.5338px">Okyanusu</tspan></text>
	<text transform="matrix(1 0 0 1 282.5547 133.5352)" font-family="'MyriadPro-Regular'" font-size="49.6733px">Avrupa</text>
	<text transform="matrix(0.9878 0 0 1 1177.124 174.8149)" font-family="'MyriadPro-Regular'" font-size="43.5338px">K</text>
</g>
</svg>
